-
 
http://www.Speed. Cd       the fast  and The Hottest Private Tracker on the net 
http://www.Speed. Cd

Please Seed back to make the speed Faster!!
 ............ NFO .............
-
 
http://www.Speed. CdTemptation 2013 CAM XViD - JUSTiCE



SOURCE : HP


Video and audio both cleaned and given justice.
Check sample and see.....


Video
ID                               : 0
Format                           : MPEG-4 Visual
Format profile                   : Advanced Simple@L5
Format settings, BVOP            : 2
Format settings, QPel            : No
Format settings, GMC             : No warppoints
Format settings, Matrix          : Default (MPEG)
Muxing mode                      : Packed bitstream
Codec ID                         : XVID
Codec ID/Hint                    : XviD
Duration                         : 1h 46mn
Bit rate                         : 1 713 Kbps
Width                            : 624 pixels
Height                           : 320 pixels
Display aspect ratio             : 1.950
Frame rate                       : 29.970 fps
Color space                      : YUV
Chroma subsampling               : 4:2:0
Bit depth                        : 8 bits
Scan type                        : Progressive
Compression mode                 : Lossy
Bits/(Pixel*Frame)               : 0.286
Stream size                      : 1.27 GiB (92%)
Writing library                  : XviD 64

Audio
ID                               : 1
Format                           : MPEG Audio
Format version                   : Version 1
Format profile                   : Layer 3
Mode                             : Joint stereo
Mode extension                   : MS Stereo
Codec ID                         : 55
Codec ID/Hint                    : MP3
Duration                         : 1h 46mn
Bit rate mode                    : Constant
Bit rate                         : 128 Kbps
Channel(s)                       : 2 channels
Sampling rate                    : 48.0 KHz
Compression mode                 : Lossy
Stream size                      : 97.4 MiB (7%)
Alignment                        : Split accross interleaves
Interleave, duration             : 33 ms (1.00 video frame)
Interleave, preload duration     : 500 ms



[IMG]http://lookpic.com/O/i2/1304/hTVQiq2H.png[/IMG]
[IMG]http://lookpic.com/O/i2/374/qlCu5lPl.png[/IMG]
[IMG]http://lookpic.com/O/i2/1759/Sr8XfFMY.png[/IMG]
[IMG]http://lookpic.com/O/i2/1762/u8LBAp5u.png[/IMG]
[IMG]http://lookpic.com/O/i2/810/Z6aVbXy.png[/IMG]